<svg width="304.91015625" height="304.91015625" viewBox="0 0 300.15 300.15" class="looka-1j8o68f"><defs id="SvgjsDefs1762"></defs><g id="SvgjsG1763" featurekey="rootContainer" transform="matrix(2.831603569779049,0,0,2.831603569779049,0,0)" fill="#171717"><rect xmlns="http://www.w3.org/2000/svg" width="106" height="106" rx="15" ry="15"></rect></g><g id="SvgjsG1764" featurekey="symbolFeature-0" transform="matrix(5.462334086222488,0,0,5.462334086222488,19.078509493067678,9.080910974709207)" fill="#ffffff"><title xmlns="http://www.w3.org/2000/svg">islam_ramadhan_muslim_eid</title><path xmlns="http://www.w3.org/2000/svg" d="M14,25a1,1,0,0,0,1,1h1V22.171A3.005,3.005,0,0,0,14,25Z"></path><path xmlns="http://www.w3.org/2000/svg" d="M44.853,24a14.233,14.233,0,0,1,.553-3.258c0.47-1.911.956-3.887,0.207-5.7-0.782-1.884-2.56-2.948-4.28-3.976a13.527,13.527,0,0,1-2.587-1.815A13.52,13.52,0,0,1,36.93,6.668c-1.029-1.72-2.092-3.5-3.977-4.28-1.81-.75-3.786-0.264-5.695.207A14.236,14.236,0,0,1,24,3.147a14.236,14.236,0,0,1-3.258-.553c-1.911-.47-3.886-0.957-5.7-0.207-1.884.782-2.948,2.56-3.976,4.28A13.531,13.531,0,0,1,9.255,9.255,13.516,13.516,0,0,1,6.668,11.07c-1.72,1.029-3.5,2.092-4.28,3.977-0.75,1.809-.264,3.784.207,5.695A14.233,14.233,0,0,1,3.147,24a14.232,14.232,0,0,1-.553,3.258c-0.47,1.911-.956,3.887-0.207,5.7,0.782,1.884,2.56,2.948,4.28,3.976a13.527,13.527,0,0,1,2.587,1.815,13.518,13.518,0,0,1,1.815,2.587c1.029,1.72,2.092,3.5,3.977,4.28A5.388,5.388,0,0,0,17.135,46a15.478,15.478,0,0,0,3.606-.595A14.233,14.233,0,0,1,24,44.853a14.233,14.233,0,0,1,3.258.553c1.911,0.469,3.884.956,5.7,0.207,1.884-.782,2.948-2.56,3.976-4.28a13.529,13.529,0,0,1,1.815-2.587,13.516,13.516,0,0,1,2.587-1.815c1.72-1.029,3.5-2.092,4.28-3.977,0.75-1.809.264-3.784-.207-5.695A14.232,14.232,0,0,1,44.853,24ZM19,15a1,1,0,0,1,2,0v1.5a0.5,0.5,0,0,0,1,0V15a1,1,0,0,1,2,0v1.5a0.5,0.5,0,0,0,1,0V15a1,1,0,0,1,2,0v1.5A2.5,2.5,0,0,1,24.5,19a2.476,2.476,0,0,1-1.5-.513A2.476,2.476,0,0,1,21.5,19,2.5,2.5,0,0,1,19,16.5V15ZM30,30a3.983,3.983,0,0,1-7,2.618A3.983,3.983,0,0,1,16,30V28H15a3,3,0,0,1-3-3,5.006,5.006,0,0,1,5-5,1,1,0,0,1,1,1v9a2,2,0,0,0,4,0V21a1,1,0,0,1,2,0v9a2,2,0,0,0,4,0V21a1,1,0,0,1,2,0v9Zm4,1a1,1,0,0,1-2,0V21a1,1,0,0,1,2,0V31Z"></path></g></svg>